PathFileType	4	(X/Y/Z)	C:\Users\dbl\Desktop\20210112(1)\20210112\bx_y_10_901.trc
DataRate	CameraRate	NumFrames	NumMarkers	Units	OrigDataRate	OrigDataStartFrame	OrigNumFrames
50.00	50.00	       4	43	mm	50.00	464	       530
Frame#	Time	Top.Head			R.Acromium			L.Acromium			Sternum			R.ASIS			L.ASIS			V.Sacral			R.Thigh.Upper			R.Thigh.Front			R.Thigh.Rear			R.Knee.Lat			R.Knee.Med			R.Shank.Upper			R.Shank.Front			R.Shank.Rear			R.Ankle.Lat			R.Midfoot.Lat			R.Toe.Lat			R.Toe.Tip			R.Toe.Med			R.Ankle.Med			R.Midfoot.Sup			R.Heel			L.Thigh.Upper			L.Thigh.Front			L.Thigh.Rear			L.Knee.Lat			L.Knee.Med			L.Shank.Upper			L.Shank.Front			L.Shank.Rear			L.Ankle.Lat			L.Midfoot.Lat			L.Toe.Lat			L.Toe.Tip			L.Toe.Med			L.Ankle.Med			L.Midfoot.Sup			L.Heel			origin1 front left			origin2 front right			origin 3 back right			origin 4 back leftt			
		X1	Y1	Z1	X2	Y2	Z2	X3	Y3	Z3	X4	Y4	Z4	X5	Y5	Z5	X6	Y6	Z6	X7	Y7	Z7	X8	Y8	Z8	X9	Y9	Z9	X10	Y10	Z10	X11	Y11	Z11	X12	Y12	Z12	X13	Y13	Z13	X14	Y14	Z14	X15	Y15	Z15	X16	Y16	Z16	X17	Y17	Z17	X18	Y18	Z18	X19	Y19	Z19	X20	Y20	Z20	X21	Y21	Z21	X22	Y22	Z22	X23	Y23	Z23	X24	Y24	Z24	X25	Y25	Z25	X26	Y26	Z26	X27	Y27	Z27	X28	Y28	Z28	X29	Y29	Z29	X30	Y30	Z30	X31	Y31	Z31	X32	Y32	Z32	X33	Y33	Z33	X34	Y34	Z34	X35	Y35	Z35	X36	Y36	Z36	X37	Y37	Z37	X38	Y38	Z38	X39	Y39	Z39	X40	Y40	Z40	X41	Y41	Z41	X42	Y42	Z42	X43	Y43	Z43	

464	9.260	-724.70898	76.82895	1849.11914	-693.02710	-79.45409	1551.06458	-692.98157	275.74817	1547.43079	-609.02942	91.56049	1433.88135	-595.47162	-20.10733	1052.11731	-584.85406	206.86357	1072.49194	-793.76959	85.39353	1052.65100	-645.64648	-79.64770	871.24805	-585.54553	-9.33720	805.21722	-691.60168	-60.49604	721.33820	-698.62628	-38.31826	619.67340	-696.41150	71.95531	580.38269	-715.15497	-35.27252	568.28979	-669.50140	11.35914	521.07202	-763.85541	-44.92050	488.84421	-768.75360	-11.04249	206.57474	-663.72559	-69.40572	161.78632	-622.04755	-79.61093	157.72496	-560.50433	-38.09118	163.75722	-604.14905	19.58316	167.26276	-720.29016	73.45638	217.79288	-677.31952	53.03910	159.67166	-797.42554	48.86763	173.26778	-638.07178	269.42267	879.94055	-583.20874	204.83284	817.66449	-685.61847	265.01892	752.42035	-718.05377	243.18152	647.24365	-688.68597	136.79428	575.51068	-725.31067	239.78352	579.41803	-673.21979	199.28426	534.10364	-768.10919	249.79123	505.75412	-771.02020	223.15535	205.91075	-665.56244	297.96158	161.47575	-628.17999	305.43494	162.20090	-560.39288	259.84418	165.22253	-594.97290	221.28119	172.95421	-711.62415	151.79636	216.21379	-675.97913	172.86510	156.96225	-796.91064	173.23108	183.72404	-528.05042	304.44058	146.58794	-517.86011	-72.50098	142.97299	-876.02173	-78.62724	141.47212	-882.60199	296.10733	144.59372	
465	9.280	-725.02655	77.20650	1849.18982	-693.36072	-79.43018	1551.08118	-692.68555	275.77930	1547.49658	-609.06238	91.54305	1433.94080	-595.79425	-20.10299	1052.01038	-584.61743	206.76010	1072.36206	-793.93500	85.53799	1052.92554	-646.24414	-79.63002	871.20007	-586.09766	-9.48405	805.12848	-692.18402	-60.61975	721.58356	-699.20972	-38.09891	619.50830	-696.75061	71.88821	580.35748	-715.41895	-35.29332	568.32745	-669.86383	11.27211	521.15619	-764.13251	-44.93548	488.77100	-768.82855	-11.06231	206.57837	-663.73932	-69.38743	161.77936	-622.03613	-79.64716	157.73334	-560.52637	-38.11118	163.84314	-604.17310	19.58177	167.29280	-720.33374	73.37401	217.77167	-677.32141	53.01124	159.67252	-797.49048	48.83354	173.20065	-638.10876	269.38043	879.82147	-583.30566	204.77710	817.58740	-685.84711	265.00021	752.39703	-718.30835	243.08688	647.11292	-688.79913	136.70396	575.48840	-725.43970	239.67714	579.39246	-673.47546	199.20851	533.98584	-768.25018	249.88989	505.76230	-771.04950	223.17038	205.86496	-665.55981	297.97549	161.46637	-628.18433	305.44955	162.22150	-560.38300	259.84192	165.22098	-594.98596	221.28145	172.99721	-711.60828	151.81026	216.19322	-675.92889	172.78122	157.04671	-796.90179	173.28606	183.63109	-528.08759	304.45013	146.57326	-517.92804	-72.48245	142.94180	-876.03552	-78.63857	141.48984	-882.57532	296.09805	144.59798	
466	9.300	-725.11548	77.64513	1849.30823	-693.62708	-79.34843	1551.11462	-692.31891	275.85535	1547.57190	-608.98273	91.55445	1434.00000	-596.14423	-20.04515	1051.90393	-584.36554	206.68878	1072.20471	-794.03857	85.74590	1053.24377	-646.82037	-79.66828	871.15814	-586.65875	-9.62801	805.02850	-692.81104	-60.79700	721.77643	-699.82159	-37.94211	619.35815	-697.08392	71.80157	580.35022	-715.76184	-35.25712	568.30554	-670.29663	11.23771	521.23389	-764.44153	-44.96729	488.72263	-768.91095	-11.07378	206.56750	-663.74945	-69.42191	161.77486	-622.06604	-79.69789	157.77495	-560.59332	-38.17302	163.89413	-604.21649	19.55304	167.32478	-720.36835	73.30729	217.77512	-677.34888	52.97022	159.64856	-797.55573	48.78162	173.17462	-638.15491	269.35172	879.75812	-583.40570	204.70348	817.53796	-686.03876	265.03665	752.42908	-718.58575	243.04045	647.01569	-688.95081	136.58101	575.43866	-725.56451	239.61084	579.38599	-673.73511	199.13756	533.85974	-768.45319	249.99986	505.80502	-771.08502	223.19708	205.81445	-665.56934	297.99152	161.43723	-628.20660	305.47110	162.25145	-560.36713	259.83719	165.22951	-594.99402	221.29054	173.02882	-711.60974	151.81129	216.16907	-675.89215	172.72029	157.11324	-796.93884	173.28404	183.62579	-528.13007	304.47467	146.58264	-517.97272	-72.42361	142.88025	-876.05493	-78.64109	141.52693	-882.55627	296.11194	144.61497	
467	9.320	-725.00214	78.10297	1849.44751	-693.82513	-79.22720	1551.13342	-691.89301	275.98331	1547.62341	-608.77747	91.62050	1434.05933	-596.51678	-19.97873	1051.81189	-584.12976	206.64377	1072.03943	-794.09821	85.99911	1053.59607	-647.41266	-79.71737	871.09961	-587.18042	-9.78767	804.94305	-693.44666	-60.94450	721.87000	-700.44550	-37.86382	619.25653	-697.36560	71.71991	580.37561	-716.21521	-35.19467	568.24933	-670.72839	11.25140	521.28888	-764.72540	-44.98878	488.66949	-768.98651	-11.07684	206.55093	-663.75757	-69.48956	161.75890	-622.12085	-79.73767	157.81754	-560.69489	-38.26582	163.89833	-604.28058	19.48013	167.36417	-720.39093	73.26195	217.79546	-677.38055	52.93727	159.61880	-797.61584	48.76844	173.18611	-638.18640	269.34042	879.70886	-583.50586	204.59070	817.48145	-686.14954	265.10986	752.46442	-718.85773	243.05363	646.93170	-689.13269	136.46268	575.36713	-725.69940	239.60883	579.38391	-673.97675	199.08395	533.76410	-768.67719	250.09917	505.84924	-771.13440	223.21489	205.76985	-665.59979	298.00787	161.39032	-628.23541	305.49542	162.28508	-560.35443	259.82330	165.24847	-594.99701	221.29749	173.03622	-711.65369	151.79665	216.12874	-675.87830	172.70258	157.13060	-797.01306	173.22778	183.71770	-528.15674	304.47864	146.58882	-517.97809	-72.36851	142.82388	-876.06531	-78.63535	141.55225	-882.54773	296.12415	144.62422	
